<?xml version="1.0" encoding="UTF-8"?><svg id="a" xmlns="http://www.w3.org/2000/svg" viewBox="0 0 294.72 300"><path d="M272.46,91.71v54.03h-41.34v-51.06c0-5.81-1.41-10.46-4.24-13.91-2.85-3.47-6.66-5.21-11.46-5.21-4.34,0-8.11,1.59-11.26,4.76-3.17,3.17-4.76,6.94-4.76,11.28,0,4.58,1.43,8.32,4.3,11.28,2.87,2.95,6.52,4.42,10.94,4.42,3.61,0,6.98-.95,10.07-2.87v42.77c-3.39,.59-6.48,.89-9.3,.89-16.57,0-30.38-5.47-41.44-16.37-2.24-2.2-4.24-4.52-6.01-6.96-2.02,4.26-4.76,8.19-8.23,11.77-8.34,8.66-18.43,12.98-30.28,12.98s-23.21-5.15-32.94-15.48c-10.76,10.33-21.58,15.48-32.5,15.48-13.77,0-24.81-5.01-33.16-15.02-6.54-7.89-9.83-19.26-9.83-34.15V37.11H62.37v59.34c0,4.66,.48,7.87,1.43,9.67,.97,1.8,2.7,2.72,5.19,2.72,4.66,0,6.98-4.12,6.98-12.39V37.11h41.32v59.34c0,4.66,.5,7.87,1.51,9.67,.99,1.8,2.74,2.72,5.23,2.72,4.58,0,6.86-4.12,6.86-12.39V37.11h41.34v14.94c.61-.69,1.25-1.37,1.92-2.02,11.16-11.12,24.73-16.69,40.73-16.69,17.82,0,31.87,5.21,42.16,15.64,10.29,10.43,15.42,24.68,15.42,42.73Z" style="fill:#282828;"/><path d="M147.2,262.92v-99.63l39.48,48-39.48,51.63Zm86.35-52.52l40.08-53.28h-46.85l-14.47,24.87-17.94-24.87-47.17-.28h-45.8v51.08c0,5.81-1.57,10.44-4.72,13.91-3.13,3.47-7.35,5.19-12.66,5.19-4.82,0-8.98-1.59-12.49-4.74-3.51-3.17-5.27-6.94-5.27-11.28,0-4.58,1.59-8.32,4.78-11.28,3.19-2.95,7.23-4.42,12.13-4.42,4,0,7.71,.95,11.14,2.87v-42.77c-3.77-.59-7.17-.89-10.29-.89-18.37,0-33.67,5.45-45.92,16.35-12.25,10.92-18.37,24.58-18.37,41.01s6.18,29.55,18.55,40.67c12.37,11.14,25.81,14.09,43.52,14.09h109.98l16.03-26.56,18.97,26.56h48.22l-41.44-56.25Zm-86.35-52.46l-.59-.81h.59v.81Z" style="fill:#282828;"/><g><path d="M147.2,266.66v-3.73l-2.85,3.73h2.85Z" style="fill:#282828;"/><polygon points="147.2 157.13 147.2 157.94 146.61 157.13 147.2 157.13" style="fill:#282828;"/></g></svg>