<?xml version="1.0" encoding="utf-8"?>
<!-- Generator: Adobe Illustrator 26.2.1, SVG Export Plug-In . SVG Version: 6.00 Build 0)  -->
<svg version="1.1" id="Layer_1" xmlns="http://www.w3.org/2000/svg" xmlns:xlink="http://www.w3.org/1999/xlink" x="0px" y="0px"
	 viewBox="0 0 113 154" style="enable-background:new 0 0 113 154;" xml:space="preserve">
<style type="text/css">
	.st0{clip-path:url(#SVGID_00000096057056436414098910000016547545545282099860_);}
	.st1{fill:#FFFFFF;}
</style>
<g>
	<defs>
		<rect id="SVGID_1_" x="0.7" y="0.9" width="111.6" height="152.3"/>
	</defs>
	<clipPath id="SVGID_00000061467174329070970320000011696625620415095185_">
		<use xlink:href="#SVGID_1_"  style="overflow:visible;"/>
	</clipPath>
	<g style="clip-path:url(#SVGID_00000061467174329070970320000011696625620415095185_);">
		<path class="st1" d="M95.1,143.2c5.9-4.9,10-11.6,12.6-20.5c3.4-11.8,4.9-24.1,4.3-36.4c-0.2-3.5-1-6.9-2.3-10.2
			c-0.8-2.3-2.3-4.4-4.4-5.7c-2.1-1.3-4.6-1.9-7-1.6c-1.8,0.3-3.6,0.7-5.3,1.5c-0.7,0.3-1.5,0.5-2.2,0.8c-0.8-1.8-1.9-3.4-3.4-4.6
			c-1.5-1.3-3.2-2.2-5.1-2.6c-4.6-1.2-8.4-0.2-11.3,3c-1.5-2.5-3.7-5-7.3-5.6c-3.2-0.6-5.8,0.7-8.8,2.9c0-0.4,0-0.7,0-1
			c0-0.9,0-1.7,0-2.6c-0.2-2-0.3-3.9-0.5-5.9c-0.5-6.5-1.1-13.3-1.7-19.9c-0.6-5.4-2.1-9.9-4.8-13.7c-2.7-3.9-6.5-4.7-10.7-2.2
			c-1.1,0.6-2.1,1.5-2.9,2.5c-0.8,1-1.3,2.2-1.7,3.4c-0.5,1.9-0.8,3.8-1,5.7l-0.1,3.3c-0.3,7.5-0.6,15.3-0.6,23
			c0,6.1,0.2,12,0.4,18.3c0.1,2.5,0.2,5,0.2,7.5l-0.2-0.1c-0.5-0.4-0.9-0.8-1.4-1.1c-6.8-4.8-14-6.5-21.2-4.9c-1.5,0.3-3,1-4.2,2
			S2.2,80.5,1.6,82C1,83.5,0.8,85.1,1,86.7c0.2,1.6,0.7,3.2,1.7,4.5C3.9,93,5.3,94.6,7,96c5.3,4.8,9.2,9.7,12,15.1
			c4.2,8.1,8.9,16.5,14.3,25.9c1.4,2.5,3.7,4.5,5.5,5.9c3.5,2.8,7.6,5.1,13,7.2c4.8,1.9,9.9,2.9,15.1,2.9c5.8-0.1,11.6-1.2,17.1-3.2
			C88.1,148.2,91.8,146,95.1,143.2z M43,136.4c-1.2-0.8-2.2-1.8-3-2.9c-2-2.9-3.9-6-5.6-9.1c-2.5-4.6-5-9.5-7.6-15
			c-4.2-8.8-9.5-15.6-16-20.7c-0.1-0.1-0.2-0.1-0.2-0.2c-0.2-0.2-0.4-0.4-0.6-0.6c-1.4-1.4-2.7-2.6-1.8-4.7c0.9-2.1,3.1-2.3,5.1-2.3
			h0c2.5,0,5.1,0.4,7.4,1.4c2.4,0.9,4.5,2.4,6.3,4.1c1.8,1.7,3.1,4,3.5,6.5c0.6,3.2,2.4,3.6,3.5,3.6c1.7-0.1,3-1.5,3.5-3.7
			c0.1-0.8,0.2-1.6,0.1-2.4c-0.2-8.5-0.3-16.8-0.5-25.2c0-1.8-0.1-3.7-0.2-5.5c-0.1-3.5-0.3-7.1-0.2-10.6c0.1-6.9,0.6-13.8,1.1-20.5
			c0.2-3.5,0.8-4.4,4-5.9c2.2,1.6,3.5,3.9,4.1,7.1c0.9,4.6,1.4,9.3,1.8,14c0.5,6.9,0.8,14,1.2,20.9c0.2,3.1,0.3,6.3,0.5,9.4
			c0.1,1.5,0.4,3.5,2.7,3.8c2.3,0.4,3.3-1.6,3.9-2.7l0.5-1.1c0.9-1.9,1.9-3.9,3-5.7c0.5-0.9,1.8-2.4,3.9-1.9c0.8,0.2,1.5,0.6,2,1.2
			c0.5,0.6,0.9,1.3,1,2.1c0.3,1.6,0.5,3.3,0.6,4.9c0,0.6,0,1.2-0.1,1.8c0,0.4-0.1,0.8-0.1,1.2c0,1.7,0.8,2.7,2.3,3
			c0.3,0.1,0.7,0.1,1,0.1c0.3-0.1,0.7-0.2,1-0.4c0.3-0.2,0.6-0.4,0.8-0.7c0.2-0.3,0.3-0.6,0.4-1c0.1-0.3,0.2-0.6,0.2-0.8
			c0.1-0.4,0.2-0.7,0.3-1.1c0.1-0.4,0.2-0.8,0.4-1.2c0.3-1,0.6-2,1-2.9l0.1-0.1c1-2.2,1.9-4.4,4.8-4.1c3.2,0.3,5.3,1.9,6.3,4.7
			c0.4,1.1,0.6,2.3,0.7,3.5l0.1,0.7c0.1,0.5,0.1,0.9,0,1.4c0,0.3,0,0.6,0,0.9c0.1,2.7,0.8,4,2.6,4.3c2.1,0.4,3-1.1,3.8-2.4l0.1-0.2
			c0.2-0.3,0.4-0.6,0.5-0.9c0.7-1.3,1.6-2.6,2.6-3.8c1.3-1.5,3-2.2,4.4-1.9c1.3,0.2,2.5,1.3,3.2,2.9c1.2,2.7,2.7,6.8,2.9,10.8
			c0.4,10.6-1,21.3-4.1,31.5c-1.3,4.4-3.3,8.5-5.9,12.3c-3.4,5-8.6,8.6-15.9,10.9C67.3,147.1,55.1,145,43,136.4L43,136.4z"/>
		<path class="st1" d="M12.7,39.7c-0.4-0.3-0.8-0.7-1.2-1c-1.1-1-2.2-1.9-3.3-2.7c-1.2-1-2.5-1-3.5-0.1c-1.5,1.4-0.2,2.9,0.3,3.4
			l1,1.1c2.8,3,5.7,6.2,8.6,9.2c0.3,0.4,0.8,0.8,1.2,1s1,0.4,1.5,0.4c0.1,0,0.1,0,0.2,0c0.5-0.1,1-0.2,1.4-0.5
			c0.4-0.3,0.8-0.6,1.1-1c2.3-3,4.5-6.1,6.7-9.1l1.3-1.8c0.5-0.6,0.8-1.3,0.9-2c-0.1-0.7-0.4-2-1.1-2.5c-0.8-0.4-2.1,0-2.7,0.3
			c-0.4,0.3-0.8,0.7-1,1.2c-0.1,0.2-0.2,0.4-0.3,0.5l-4,5.8l-0.2-0.1c0-0.3-0.1-0.5-0.1-0.8c-0.1-0.7-0.2-1.3-0.2-2
			c-0.3-8.8-0.5-17.6-0.8-26.5l-0.2-5.8c0-0.3,0-0.7,0-1c0-0.7,0-1.4-0.1-2.1c-0.3-2.4-1.6-2.8-2.6-2.7c-1.3,0.1-2,1-2.1,2.8
			c-0.1,0.8-0.1,1.5-0.2,2.3c-0.2,2-0.3,4.1-0.3,6.1c0,5.5,0,11.1,0,16.5c0,3,0,6,0,9.1c0,0.5-0.1,1.1-0.1,1.6
			C12.7,39.4,12.7,39.5,12.7,39.7z"/>
	</g>
</g>
</svg>
