<?xml version="1.0" encoding="UTF-8"?><svg id="a" xmlns="http://www.w3.org/2000/svg" viewBox="0 0 165 94"><g><path d="M58.96,59.82v-.05h0c-.08-.66-.31-1.3-.77-1.81l-6.62-6.26c-.59-.55-1.53-.49-2.03,.18-.42,.56-.31,1.36,.2,1.84l5.67,5.36c.21,.2,.07,.56-.22,.52h-16.92c-.24,.04-.35-.12-.4-.21-.04-.09-.09-.26,.03-.44l19.69-20.34,.09-.06c.4-.5,.68-1.67,.68-1.67v.24c0-.13,0-.26,0-.4v-7.84h0v-.02c0-.77-.62-1.4-1.4-1.4h-3.76c-.77,0-1.43,.59-1.46,1.35s.61,1.44,1.4,1.44h2.23v3.21c-.07,0-.15-.02-.22-.02h-17.35v-3.16s.02-.04,.04-.04h8.94c.47,0,.93-.23,1.18-.63,.62-.99-.16-2.17-1.21-2.17h-11.74v8.39h.09c0,.68,.23,1.32,.66,1.82l5.45,6.32c.53,.61,1.48,.64,2.04,.03,.47-.52,.44-1.32-.01-1.85l-4.34-5.03c-.35-.41,.47-1.09,.47-1.09h15.85c.25,0,.37,.17,.42,.27,.04,.09,.1,.27-.03,.46l-19.63,20.31-.08,.09c-.57,.7-.81,1.59-.68,2.45h0v7.16h0v.02h0c0,.77,.61,1.4,1.36,1.4h3.66c.75,0,1.4-.59,1.42-1.35s-.6-1.44-1.36-1.44h-2.09v-3.01c.08,0,.17,.02,.25,.02h17.72v3.16s-.02,.04-.04,.04h-8.69s-1.38,.46-1.38,1.2,.62,1.4,1.39,1.4h11.32v-8.35h.2Z"/><g><path d="M46.18,72.81l1.05-1.36c.05-.06,.08-.12,.11-.19s.04-.12,.04-.18h0c0-.09-.03-.15-.08-.19s-.13-.07-.23-.07-.17,.03-.23,.09-.09,.15-.11,.26h-.59c.01-.19,.06-.35,.14-.49,.08-.14,.19-.24,.32-.31s.29-.11,.47-.11c.19,0,.35,.03,.49,.09,.13,.06,.24,.15,.31,.27,.07,.12,.11,.26,.11,.43h0c0,.14-.02,.28-.07,.41s-.12,.26-.2,.37l-.75,.94h1.04v.6h-1.8v-.56h0Z"/><path d="M48.81,73.18c-.15-.16-.23-.37-.23-.65v-1.4c0-.28,.08-.49,.23-.65,.15-.15,.38-.23,.67-.23s.52,.08,.67,.23c.15,.15,.23,.37,.23,.65v1.4c0,.28-.08,.49-.23,.65-.15,.15-.38,.23-.67,.23s-.52-.08-.67-.23h0Zm.93-.43c.06-.08,.08-.2,.04-.35v-1.11c.04-.15,.02-.27-.04-.35s-.14-.12-.26-.12-.2,.04-.26,.12-.08,.2-.04,.35v1.11c-.04,.15-.01,.27,.04,.35s.14,.12,.26,.12,.2-.04,.26-.12Z"/><path d="M50.98,72.81l1.05-1.36c.05-.06,.08-.12,.11-.19s.04-.12,.04-.18h0c0-.09-.03-.15-.08-.19s-.13-.07-.23-.07-.17,.03-.23,.09-.09,.15-.11,.26h-.59c.01-.19,.06-.35,.14-.49,.08-.14,.19-.24,.32-.31s.29-.11,.47-.11c.19,0,.35,.03,.49,.09,.13,.06,.24,.15,.31,.27,.07,.12,.11,.26,.11,.43h0c0,.14-.02,.28-.07,.41s-.12,.26-.2,.37l-.75,.94h1.04v.6h-1.8v-.56h0Z"/><path d="M53.15,72.78l1.06-1.3c.05-.06,.09-.13,.11-.19s.05-.18,.05-.18v-.02c0-.08-.03-.14-.08-.19-.05-.04-.13-.07-.22-.07s-.17,.03-.23,.09-.09,.15-.11,.26h-.58c.01-.19,.06-.35,.14-.49,.08-.14,.18-.24,.32-.31s.29-.11,.46-.11c.19,0,.35,.03,.48,.09s.24,.15,.3,.27c.07,.12,.11,.26,.11,.43h0c0,.14-.02,.28-.07,.41-.05,.13-.12,.26-.2,.37l-.74,.94h1.03v.6h-1.8v-.6h-.02Z"/></g><g><path d="M40.39,70.88l-1.19,1.9h1.18v.6h-2v-.54l1.29-1.85h-1.09v-.6h1.8v.5h0Z"/><path d="M40.79,70.38h.6v2.2h-.6v-2.2Zm0,2.4h.6v.6h-.6v-.6Z"/><path d="M38,73.38h-.6v-2.2h.6v2.2Zm0-2.4h-.6v-.6h.6v.6Z"/></g><rect x="35" y="70.18" width="1.8" height="3.2"/><rect x="55.57" y="70.18" width="3.39" height="3.2"/><rect x="41.99" y="70.18" width="3.79" height="3.2"/></g><g><polygon points="93.42 37.7 99.38 37.7 99.38 61.21 93.99 61.21 93.42 37.7"/><circle cx="96.42" cy="31.26" r="3.89"/><circle cx="136.11" cy="59.41" r="3.89"/><polygon points="107.05 36.2 107.05 30.64 126.22 30.64 115.14 56.72 125.31 56.72 125.31 62.71 105.92 62.71 117.38 36.65 107.05 36.2"/><rect x="133.11" y="29.31" width="5.96" height="23.35"/><path d="M137.3,74.46h-40.59c-.53,0-.96-.43-.96-.96s.43-.96,.96-.96h40.59c.53,0,.96,.43,.96,.96s-.43,.96-.96,.96Z"/></g><g><rect x="73.67" y="43.96" width="2.89" height="12.8"/><rect x="73.67" y="43.96" width="2.89" height="12.8" transform="translate(24.75 125.48) rotate(-90)"/></g></svg>